<svg width="213" height="69" viewBox="0 0 213 69" fill="none" xmlns="http://www.w3.org/2000/svg">
<path d="M27 0.875C27.125 1.08333 27.1875 1.5625 27.1875 2.3125C27.2292 3.0625 27.2083 3.875 27.125 4.75C27.0417 5.625 26.9167 6.47917 26.75 7.3125C26.625 8.10417 26.4792 8.625 26.3125 8.875C26.1875 9.08333 25.4167 9.16667 24 9.125C22.625 9.04167 20.6458 8.83333 18.0625 8.5C18.0625 10.125 18.0417 12.2083 18 14.75C17.9583 17.2917 17.875 20.0208 17.75 22.9375C17.6667 25.8125 17.5625 28.7083 17.4375 31.625C17.3542 34.5417 17.25 37.1875 17.125 39.5625C17 41.9375 16.875 43.875 16.75 45.375C16.625 46.875 16.5208 47.6667 16.4375 47.75C16.2708 47.875 15.9792 47.8125 15.5625 47.5625C15.1875 47.3542 14.7917 47.0417 14.375 46.625C13.9583 46.2083 13.5625 45.7917 13.1875 45.375C12.8542 44.9167 12.625 44.5208 12.5 44.1875C12.4583 44.0208 12.375 43.2083 12.25 41.75C12.1667 40.2917 12.0625 38.4583 11.9375 36.25C11.8125 34.0417 11.6667 31.5833 11.5 28.875C11.3333 26.1667 11.1667 23.4792 11 20.8125C10.8333 18.1458 10.6458 15.6458 10.4375 13.3125C10.2708 10.9792 10.125 9.04167 10 7.5C7.16667 7.20833 5.125 6.91667 3.875 6.625C2.625 6.33333 1.91667 6.10417 1.75 5.9375C1.58333 5.77083 1.41667 5.45833 1.25 5C1.04167 4.5 0.875 4 0.75 3.5C0.625 3 0.5625 2.54167 0.5625 2.125C0.520833 1.66667 0.5625 1.375 0.6875 1.25C0.770833 1.16667 1.47917 1.08333 2.8125 1C4.10417 0.916667 5.70833 0.833333 7.625 0.75C9.54167 0.666667 11.6042 0.604167 13.8125 0.5625C16.0625 0.520833 18.1458 0.5 20.0625 0.5C21.9792 0.5 23.5833 0.541667 24.875 0.625C26.2083 0.666667 26.9167 0.75 27 0.875ZM43.0625 14.125C43.3125 14.4167 43.5417 14.7292 43.75 15.0625C43.9583 15.3542 44.1458 15.7708 44.3125 16.3125C44.4792 16.8125 44.6042 17.4792 44.6875 18.3125C44.8125 19.1458 44.875 20.2292 44.875 21.5625C44.875 23.6875 44.8125 25.8333 44.6875 28C44.6042 30.125 44.5208 32 44.4375 33.625C44.3958 35.0833 44.3542 36.4375 44.3125 37.6875C44.2708 38.9375 44.2292 40.0417 44.1875 41C44.1458 41.9167 44.0833 42.6458 44 43.1875C43.9583 43.7292 43.9167 44.0208 43.875 44.0625C43.7083 44.1875 43.4375 44.1458 43.0625 43.9375C42.7292 43.6875 42.3542 43.375 41.9375 43C41.5625 42.625 41.2083 42.2292 40.875 41.8125C40.5417 41.3958 40.3333 41.0625 40.25 40.8125C40.25 40.6042 40.1875 40 40.0625 39C39.0625 39.5833 37.9583 40 36.75 40.25C35.5417 40.4583 34.3333 40.5417 33.125 40.5C31.9583 40.4167 30.875 40.1875 29.875 39.8125C28.875 39.4375 28.125 38.9375 27.625 38.3125C27.4167 38.0625 27.2292 37.6875 27.0625 37.1875C26.9375 36.6875 26.8125 36.125 26.6875 35.5C26.6042 34.8333 26.5208 34.1458 26.4375 33.4375C26.3542 32.6875 26.2917 32 26.25 31.375C26.1667 29.75 26.375 28.3542 26.875 27.1875C27.375 25.9792 28.2917 25.0833 29.625 24.5C30.2083 24.25 30.9792 24.125 31.9375 24.125C32.9375 24.0833 33.9167 24.125 34.875 24.25C35.875 24.3333 36.7708 24.4583 37.5625 24.625C38.3542 24.75 38.8542 24.8542 39.0625 24.9375C38.8958 22.8125 38.7708 20.9792 38.6875 19.4375C38.6042 17.8542 38.4375 16.8333 38.1875 16.375C37.9792 16.0833 37.7292 15.7917 37.4375 15.5C37.1875 15.2917 36.8542 15.0625 36.4375 14.8125C36.0208 14.5625 35.5208 14.375 34.9375 14.25C34.4792 14.1667 34.0625 14.3542 33.6875 14.8125C33.3542 15.2292 33.0417 15.9792 32.75 17.0625C32.5 18.1042 32.3542 19.7083 32.3125 21.875C30.8542 21.9167 29.7292 21.9167 28.9375 21.875C28.1875 21.7917 27.625 21.7083 27.25 21.625C26.7917 21.5417 26.5208 21.4375 26.4375 21.3125C26.3542 21.1458 26.3958 20.5417 26.5625 19.5C26.7292 18.4167 26.9583 17.25 27.25 16C27.5833 14.75 27.9583 13.5625 28.375 12.4375C28.8333 11.3125 29.3125 10.6042 29.8125 10.3125C30.8125 9.72917 32 9.52083 33.375 9.6875C34.7917 9.85417 36.1667 10.2083 37.5 10.75C38.8333 11.2917 40.0208 11.8958 41.0625 12.5625C42.1042 13.2292 42.7708 13.75 43.0625 14.125ZM39.1875 32.375C39.1875 32.1667 39.2083 31.8958 39.25 31.5625C39.2917 31.1875 39.3125 30.8125 39.3125 30.4375C39.3125 30.0625 39.2917 29.7083 39.25 29.375C39.25 29.0417 39.2083 28.7917 39.125 28.625C39 28.375 38.625 28.1667 38 28C37.4167 27.8333 36.75 27.7292 36 27.6875C35.25 27.6042 34.5417 27.5833 33.875 27.625C33.2083 27.625 32.75 27.7083 32.5 27.875C32.1667 28.0833 31.9167 28.375 31.75 28.75C31.625 29.125 31.5417 29.7083 31.5 30.5C31.5 30.875 31.5208 31.2708 31.5625 31.6875C31.6042 32.1042 31.6458 32.5208 31.6875 32.9375C31.7708 33.3125 31.8542 33.6458 31.9375 33.9375C32.0625 34.2292 32.1875 34.4167 32.3125 34.5C32.6042 34.7083 33.1042 34.8958 33.8125 35.0625C34.5625 35.1875 35.3125 35.2292 36.0625 35.1875C36.8125 35.1042 37.5 34.8542 38.125 34.4375C38.75 34.0208 39.1042 33.3333 39.1875 32.375ZM58.875 12.8125C58.7083 12.6458 58.3542 12.4792 57.8125 12.3125C57.2708 12.1458 56.8958 12.2083 56.6875 12.5C56.5625 12.6667 56.3542 13.2083 56.0625 14.125C55.7708 15.0417 55.4583 16.2083 55.125 17.625C54.8333 19.0417 54.5625 20.6667 54.3125 22.5C54.1042 24.3333 54 26.2292 54 28.1875C54 29.6042 54.0625 30.9583 54.1875 32.25C54.3125 33.5 54.4583 34.6042 54.625 35.5625C54.8333 36.5208 55.0625 37.2917 55.3125 37.875C55.6042 38.4583 55.8958 38.7708 56.1875 38.8125C56.4375 38.8125 56.7292 38.5208 57.0625 37.9375C57.4375 37.3542 57.7917 36.6875 58.125 35.9375C58.5 35.1458 58.8125 34.4167 59.0625 33.75C59.3542 33.0417 59.5625 32.5833 59.6875 32.375C60.0208 31.8333 60.4583 31.375 61 31C61.5417 30.5833 62 30.375 62.375 30.375C62.5833 30.375 62.7292 30.5208 62.8125 30.8125C62.9375 31.1042 63.0208 31.4583 63.0625 31.875C63.1458 32.25 63.1875 32.6458 63.1875 33.0625C63.1875 33.4792 63.1875 33.8125 63.1875 34.0625C63.1875 34.5208 63.1042 35.375 62.9375 36.625C62.7708 37.875 62.5208 39.1458 62.1875 40.4375C61.8958 41.7292 61.5417 42.875 61.125 43.875C60.75 44.875 60.3333 45.3542 59.875 45.3125C59.4167 45.2708 58.7292 45.0625 57.8125 44.6875C56.8958 44.3125 55.9583 43.875 55 43.375C54.0833 42.875 53.2292 42.375 52.4375 41.875C51.6875 41.3333 51.2292 40.9167 51.0625 40.625C50.8958 40.3333 50.6458 39.625 50.3125 38.5C49.9792 37.3333 49.625 35.9167 49.25 34.25C48.9167 32.5833 48.625 30.75 48.375 28.75C48.125 26.75 48 24.75 48 22.75C48 20.75 48.0417 18.7708 48.125 16.8125C48.25 14.8542 48.4375 13.1042 48.6875 11.5625C48.9375 10.0208 49.25 8.77083 49.625 7.8125C50.0417 6.85417 50.5417 6.35417 51.125 6.3125C52.75 6.14583 54.375 6.29167 56 6.75C57.6667 7.16667 59.1458 7.75 60.4375 8.5C61.7708 9.20833 62.8542 9.97917 63.6875 10.8125C64.5208 11.6042 64.9583 12.2708 65 12.8125C65.0417 13.3958 65 14.2083 64.875 15.25C64.7917 16.2917 64.6458 17.3542 64.4375 18.4375C64.2708 19.4792 64.0625 20.4375 63.8125 21.3125C63.6042 22.1458 63.4167 22.625 63.25 22.75C62.875 23.125 62.4375 23.5208 61.9375 23.9375C61.4375 24.3542 60.9583 24.4375 60.5 24.1875C60.3333 24.1042 60.1875 23.7917 60.0625 23.25C59.9375 22.6667 59.8125 21.9583 59.6875 21.125C59.6042 20.2917 59.5208 19.3958 59.4375 18.4375C59.3542 17.4792 59.2708 16.6042 59.1875 15.8125C59.1458 14.9792 59.0833 14.2917 59 13.75C58.9583 13.1667 58.9167 12.8542 58.875 12.8125ZM82.3125 18.5625C82.7292 18.8125 83.125 19.2708 83.5 19.9375C83.9167 20.6042 84.2917 21.375 84.625 22.25C84.9583 23.0833 85.2292 24 85.4375 25C85.6458 25.9583 85.75 26.875 85.75 27.75C85.75 28.3333 85.6667 29.2083 85.5 30.375C85.3333 31.5 85.125 32.75 84.875 34.125C84.625 35.4583 84.3542 36.8333 84.0625 38.25C83.7708 39.6667 83.5 40.9583 83.25 42.125C83 43.2917 82.7708 44.2708 82.5625 45.0625C82.3542 45.8542 82.2292 46.2917 82.1875 46.375C82.1042 46.5 81.8542 46.5833 81.4375 46.625C81.0625 46.6667 80.6458 46.6458 80.1875 46.5625C79.7708 46.4792 79.375 46.3542 79 46.1875C78.625 46.0208 78.3958 45.8125 78.3125 45.5625C78.2708 45.3958 78.25 44.875 78.25 44C78.2917 43.0833 78.3333 42 78.375 40.75C78.4583 39.5 78.5417 38.1458 78.625 36.6875C78.75 35.2292 78.8542 33.875 78.9375 32.625C79.0208 31.3333 79.0833 30.2292 79.125 29.3125C79.2083 28.3958 79.25 27.8542 79.25 27.6875C79.2917 27.0208 79.2292 26.375 79.0625 25.75C78.9375 25.0833 78.75 24.5208 78.5 24.0625C78.2917 23.6042 78.0417 23.25 77.75 23C77.5 22.75 77.25 22.6667 77 22.75C76.625 22.8333 76.25 22.9375 75.875 23.0625C75.5417 23.1875 75.25 23.2917 75 23.375C74.6667 23.5 74.375 23.625 74.125 23.75C74.0833 26.8333 74.0208 29.8542 73.9375 32.8125C73.8542 35.7708 73.75 38.4375 73.625 40.8125C73.5 43.1458 73.3542 45.0417 73.1875 46.5C73.0625 47.9167 72.9167 48.6458 72.75 48.6875C72.4167 48.7292 72.0417 48.5833 71.625 48.25C71.25 47.9167 70.875 47.5 70.5 47C70.125 46.5417 69.7917 46.0417 69.5 45.5C69.25 44.9583 69.0833 44.5 69 44.125C68.6667 40.0417 68.3958 36.3958 68.1875 33.1875C67.9792 29.9375 67.8125 27.0625 67.6875 24.5625C67.5625 22.0625 67.4583 19.8958 67.375 18.0625C67.3333 16.2292 67.3125 14.6667 67.3125 13.375C67.2708 10.3333 67.3125 8.22917 67.4375 7.0625C67.6042 6.1875 67.9792 5.35417 68.5625 4.5625C69.1458 3.72917 69.7708 3 70.4375 2.375C71.1458 1.75 71.7917 1.29167 72.375 1C73 0.666667 73.4167 0.583333 73.625 0.75C73.75 0.875 73.8542 1.45833 73.9375 2.5C74.0625 3.5 74.1458 4.85417 74.1875 6.5625C74.2292 8.22917 74.25 10.1667 74.25 12.375C74.25 14.5417 74.2292 16.8333 74.1875 19.25C75.8542 18.5833 77.3958 18.1667 78.8125 18C80.2708 17.8333 81.4375 18.0208 82.3125 18.5625ZM93.8125 28.9375C94.4792 28.6875 95.2292 28.4167 96.0625 28.125C96.9375 27.7917 97.7708 27.5 98.5625 27.25C99.3542 26.9583 100.062 26.7083 100.688 26.5C101.312 26.2917 101.771 26.125 102.062 26C102.021 25.5417 101.958 25.0208 101.875 24.4375C101.833 23.8125 101.771 23.2292 101.688 22.6875C101.604 22.1042 101.5 21.6042 101.375 21.1875C101.25 20.7708 101.125 20.5208 101 20.4375C100.667 20.3125 100.104 20.2083 99.3125 20.125C98.5625 20 97.7708 20.0208 96.9375 20.1875C96.1458 20.3542 95.4167 20.6667 94.75 21.125C94.0833 21.5833 93.7083 22.3125 93.625 23.3125C93.5417 23.9792 93.5208 24.8125 93.5625 25.8125C93.6042 26.8125 93.6875 27.8542 93.8125 28.9375ZM107.375 29.9375C107.333 30.0208 106.833 30.1875 105.875 30.4375C104.917 30.6875 103.771 30.9583 102.438 31.25C101.104 31.5 99.6875 31.7708 98.1875 32.0625C96.6875 32.3125 95.3958 32.5208 94.3125 32.6875C94.5208 34.3542 94.7708 35.8542 95.0625 37.1875C95.3542 38.4792 95.6042 39.2917 95.8125 39.625C96.0208 39.9167 96.2917 40.1875 96.625 40.4375C96.9167 40.6458 97.2708 40.8542 97.6875 41.0625C98.1458 41.2292 98.6875 41.3542 99.3125 41.4375C99.7708 41.5625 100.208 41.3958 100.625 40.9375C100.958 40.5208 101.25 39.7917 101.5 38.75C101.792 37.7083 101.938 36.0625 101.938 33.8125C103.229 33.6042 104.229 33.4792 104.938 33.4375C105.688 33.3958 106.229 33.3958 106.562 33.4375C106.979 33.4792 107.229 33.5417 107.312 33.625C107.354 33.75 107.354 34.0625 107.312 34.5625C107.271 35.0625 107.167 35.6875 107 36.4375C106.875 37.1458 106.708 37.9375 106.5 38.8125C106.333 39.6458 106.125 40.4583 105.875 41.25C105.625 42 105.354 42.6875 105.062 43.3125C104.771 43.8958 104.458 44.3125 104.125 44.5625C103.125 45.3125 101.875 45.6875 100.375 45.6875C98.875 45.6458 97.3958 45.4375 95.9375 45.0625C94.4792 44.6458 93.1667 44.1667 92 43.625C90.8333 43.0417 90.1042 42.5625 89.8125 42.1875C89.6042 41.9375 89.4167 41.3125 89.25 40.3125C89.0833 39.2708 88.9375 38.0208 88.8125 36.5625C88.7292 35.1042 88.6667 33.5 88.625 31.75C88.5833 30 88.6042 28.2917 88.6875 26.625C88.8125 24.9583 88.9792 23.4167 89.1875 22C89.4375 20.5833 89.7708 19.4375 90.1875 18.5625C90.8125 17.3125 91.8333 16.2917 93.25 15.5C94.6667 14.7083 96.1667 14.1667 97.75 13.875C99.3333 13.5833 100.833 13.5417 102.25 13.75C103.708 13.9583 104.792 14.4167 105.5 15.125C105.917 15.5417 106.292 16.375 106.625 17.625C106.958 18.8333 107.167 20.3125 107.25 22.0625C107.25 22.2292 107.271 22.7083 107.312 23.5C107.354 24.2917 107.375 25.1458 107.375 26.0625C107.417 26.9375 107.438 27.7708 107.438 28.5625C107.438 29.3542 107.417 29.8125 107.375 29.9375ZM130.188 27.5C130.188 28.0417 130.167 28.8958 130.125 30.0625C130.125 31.2292 130.104 32.5417 130.062 34C130.021 35.4583 129.958 36.9792 129.875 38.5625C129.833 40.1042 129.75 41.5208 129.625 42.8125C129.5 44.0625 129.354 45.1042 129.188 45.9375C129.062 46.7708 128.896 47.1875 128.688 47.1875C128.062 47.1875 127.458 46.75 126.875 45.875C126.333 44.9583 125.771 43.9792 125.188 42.9375C125.062 42.6875 124.917 41.9583 124.75 40.75C124.625 39.5 124.479 37.9375 124.312 36.0625C124.188 34.1875 124.062 32.1042 123.938 29.8125C123.812 27.5208 123.688 25.1875 123.562 22.8125C123.438 20.4375 123.333 18.1042 123.25 15.8125C123.208 13.5208 123.167 11.4583 123.125 9.625C123.083 7.79167 123.083 6.27083 123.125 5.0625C123.167 3.8125 123.25 3.08333 123.375 2.875C123.542 2.58333 124.125 2.375 125.125 2.25C126.125 2.08333 127.333 2 128.75 2C130.208 2 131.771 2.04167 133.438 2.125C135.104 2.20833 136.646 2.33333 138.062 2.5C139.521 2.625 140.729 2.77083 141.688 2.9375C142.688 3.10417 143.25 3.25 143.375 3.375C143.542 3.54167 143.562 4 143.438 4.75C143.354 5.45833 143.188 6.25 142.938 7.125C142.729 7.95833 142.458 8.75 142.125 9.5C141.833 10.25 141.583 10.7292 141.375 10.9375C141.167 11.1458 140.188 11.125 138.438 10.875C136.729 10.625 133.979 10.3333 130.188 10V20.4375C133.104 20.6875 135.375 20.9167 137 21.125C138.667 21.3333 139.542 21.4792 139.625 21.5625C139.792 21.7292 139.854 22.0625 139.812 22.5625C139.771 23.0625 139.667 23.6042 139.5 24.1875C139.333 24.7292 139.125 25.25 138.875 25.75C138.625 26.2083 138.375 26.5208 138.125 26.6875C138 26.7708 137.25 26.8958 135.875 27.0625C134.542 27.2292 132.646 27.375 130.188 27.5ZM148.562 46.625C148.271 46.7083 147.938 46.6042 147.562 46.3125C147.188 46.0208 146.812 45.6667 146.438 45.25C146.104 44.7917 145.812 44.3125 145.562 43.8125C145.312 43.3125 145.146 42.8958 145.062 42.5625C144.771 38.8958 144.521 35.625 144.312 32.75C144.146 29.8333 144 27.25 143.875 25C143.75 22.75 143.646 20.8125 143.562 19.1875C143.521 17.5208 143.5 16.1042 143.5 14.9375C143.458 12.2292 143.5 10.3542 143.625 9.3125C143.75 8.5625 144.083 7.8125 144.625 7.0625C145.208 6.3125 145.812 5.66667 146.438 5.125C147.104 4.58333 147.708 4.16667 148.25 3.875C148.833 3.58333 149.208 3.5 149.375 3.625C149.542 3.75 149.667 4.45833 149.75 5.75C149.833 7 149.896 8.64583 149.938 10.6875C149.979 12.7292 149.979 15.0208 149.938 17.5625C149.938 20.1042 149.896 22.7083 149.812 25.375C149.771 28.0417 149.708 30.6458 149.625 33.1875C149.542 35.7292 149.438 38 149.312 40C149.188 41.9583 149.062 43.5417 148.938 44.75C148.812 45.9583 148.688 46.5833 148.562 46.625ZM168.062 12.8125C168.354 13.0625 168.625 13.5417 168.875 14.25C169.167 14.9583 169.417 15.8125 169.625 16.8125C169.833 17.8125 170.021 18.8958 170.188 20.0625C170.354 21.2292 170.5 22.375 170.625 23.5C170.75 24.625 170.833 25.6875 170.875 26.6875C170.958 27.6458 171.021 28.4375 171.062 29.0625C171.104 29.8125 171.125 30.6042 171.125 31.4375C171.167 32.2292 171.167 33 171.125 33.75C171.125 34.4583 171.083 35.1042 171 35.6875C170.958 36.2708 170.875 36.7083 170.75 37C170.5 37.625 170.062 38.0625 169.438 38.3125C168.854 38.5208 168.188 38.6667 167.438 38.75C167.062 38.7917 166.417 38.8125 165.5 38.8125C164.625 38.7708 163.667 38.7292 162.625 38.6875C161.625 38.6042 160.667 38.5208 159.75 38.4375C158.833 38.3542 158.146 38.2708 157.688 38.1875C156.771 37.9792 156.104 37.7083 155.688 37.375C155.312 37.0417 154.938 36.5625 154.562 35.9375C154.438 35.6875 154.333 35.0625 154.25 34.0625C154.167 33.0208 154.104 31.7917 154.062 30.375C154.062 28.9167 154.083 27.3542 154.125 25.6875C154.167 24.0208 154.229 22.4375 154.312 20.9375C154.438 19.4375 154.562 18.125 154.688 17C154.854 15.875 155.062 15.125 155.312 14.75C155.729 14.1667 156.438 13.625 157.438 13.125C158.479 12.625 159.417 12.2292 160.25 11.9375C160.667 11.8125 161.208 11.7292 161.875 11.6875C162.583 11.6042 163.312 11.6042 164.062 11.6875C164.854 11.7292 165.604 11.8542 166.312 12.0625C167.021 12.2292 167.604 12.4792 168.062 12.8125ZM164.562 32.1875C164.646 32.0208 164.729 31.5208 164.812 30.6875C164.938 29.8125 165.021 28.7708 165.062 27.5625C165.146 26.3542 165.188 25.0625 165.188 23.6875C165.229 22.3125 165.25 21.0417 165.25 19.875C165.25 18.7083 165.208 17.7292 165.125 16.9375C165.042 16.1042 164.938 15.625 164.812 15.5C164.604 15.3333 164.292 15.2708 163.875 15.3125C163.5 15.3125 163.104 15.375 162.688 15.5C162.271 15.5833 161.896 15.7083 161.562 15.875C161.229 16 161 16.125 160.875 16.25C160.333 16.7083 160.042 17.4583 160 18.5C160 18.7917 159.958 19.625 159.875 21C159.833 22.3333 159.812 23.7917 159.812 25.375C159.812 26.9167 159.833 28.3542 159.875 29.6875C159.958 31.0208 160.104 31.8333 160.312 32.125C160.521 32.4167 160.812 32.6458 161.188 32.8125C161.604 32.9375 162.021 33 162.438 33C162.896 33 163.312 32.9375 163.688 32.8125C164.104 32.6458 164.396 32.4375 164.562 32.1875ZM195.562 7.375C195.688 7.5 195.708 8.14583 195.625 9.3125C195.583 10.4792 195.458 11.9792 195.25 13.8125C195.083 15.6458 194.854 17.7083 194.562 20C194.271 22.2917 193.958 24.625 193.625 27C193.292 29.3333 192.938 31.6458 192.562 33.9375C192.229 36.1875 191.896 38.1875 191.562 39.9375C191.271 41.6875 191 43.1042 190.75 44.1875C190.5 45.2708 190.312 45.8125 190.188 45.8125C189.938 45.8125 189.646 45.6875 189.312 45.4375C189.021 45.1458 188.729 44.8125 188.438 44.4375C188.188 44.0625 187.938 43.6875 187.688 43.3125C187.479 42.9375 187.354 42.625 187.312 42.375C187.229 41.9167 187.021 41.0833 186.688 39.875C186.396 38.6667 186.146 37.1875 185.938 35.4375C185.771 34.2708 185.604 33.0208 185.438 31.6875C185.271 30.6042 185.104 29.375 184.938 28C184.771 26.625 184.604 25.2708 184.438 23.9375C184.271 24.8125 184.083 25.8333 183.875 27C183.708 28.1667 183.521 29.2917 183.312 30.375C183.104 31.625 182.854 32.9167 182.562 34.25C182.312 35.625 182.042 36.9792 181.75 38.3125C181.5 39.6458 181.229 40.8542 180.938 41.9375C180.688 42.9792 180.438 43.8333 180.188 44.5C179.979 45.1667 179.812 45.5 179.688 45.5C179.438 45.5833 179.146 45.5208 178.812 45.3125C178.479 45.1042 178.146 44.8333 177.812 44.5C177.479 44.125 177.188 43.75 176.938 43.375C176.688 42.9583 176.542 42.5833 176.5 42.25C176.042 39.0417 175.646 36.1667 175.312 33.625C174.979 31.0417 174.688 28.7708 174.438 26.8125C174.229 24.8125 174.042 23.0833 173.875 21.625C173.75 20.1667 173.646 18.9167 173.562 17.875C173.354 15.4583 173.271 13.7708 173.312 12.8125C173.438 12.1042 173.729 11.3958 174.188 10.6875C174.646 9.97917 175.125 9.35417 175.625 8.8125C176.167 8.27083 176.667 7.85417 177.125 7.5625C177.625 7.22917 177.958 7.10417 178.125 7.1875C178.208 7.22917 178.292 7.66667 178.375 8.5C178.458 9.29167 178.521 10.3333 178.562 11.625C178.646 12.9167 178.708 14.4167 178.75 16.125C178.833 17.7917 178.896 19.5417 178.938 21.375C179.021 23.1667 179.083 25 179.125 26.875C179.208 28.7083 179.292 30.4167 179.375 32C179.583 30.7917 179.812 29.3333 180.062 27.625C180.312 25.875 180.562 24.1667 180.812 22.5C181.062 20.8333 181.292 19.3542 181.5 18.0625C181.75 16.7292 181.958 15.875 182.125 15.5C182.458 14.75 182.833 14.0833 183.25 13.5C183.708 12.9167 184.146 12.4583 184.562 12.125C185.021 11.75 185.417 11.4792 185.75 11.3125C186.125 11.1458 186.375 11.0833 186.5 11.125C186.542 11.125 186.604 11.4583 186.688 12.125C186.771 12.7917 186.875 13.6667 187 14.75C187.125 15.8333 187.25 17.0833 187.375 18.5C187.542 19.875 187.708 21.3125 187.875 22.8125C188.042 24.2708 188.208 25.7292 188.375 27.1875C188.542 28.6458 188.729 29.9792 188.938 31.1875C189.021 29.5208 189.125 27.6458 189.25 25.5625C189.375 23.4375 189.5 21.4167 189.625 19.5C189.75 17.5417 189.875 15.8333 190 14.375C190.125 12.875 190.25 11.9375 190.375 11.5625C190.583 10.8958 190.938 10.2917 191.438 9.75C191.938 9.16667 192.458 8.6875 193 8.3125C193.583 7.89583 194.104 7.60417 194.562 7.4375C195.062 7.27083 195.396 7.25 195.562 7.375Z" fill="white"/>
<path d="M27.4688 61.104C27.4688 61.6053 27.3515 62.0373 27.1168 62.4C26.8928 62.752 26.5195 63.0773 25.9968 63.376C25.6448 63.5893 25.2341 63.7493 24.7648 63.856C24.2955 63.9627 23.8208 64.016 23.3408 64.016C22.8501 64.016 22.2421 63.856 21.5168 63.536C20.9941 63.28 20.5781 62.976 20.2688 62.624C19.9701 62.272 19.8208 61.888 19.8208 61.472C19.8208 61.184 19.8848 60.976 20.0128 60.848C20.1408 60.7093 20.3488 60.64 20.6368 60.64C20.7861 60.64 20.9408 60.704 21.1008 60.832C21.2608 60.9493 21.3568 61.0667 21.3888 61.184C21.5381 61.6213 21.7995 61.9573 22.1728 62.192C22.5461 62.416 23.0101 62.528 23.5648 62.528C24.2048 62.528 24.7381 62.4107 25.1648 62.176C25.6021 61.9413 25.8208 61.6267 25.8208 61.232C25.8208 60.848 25.5861 60.5067 25.1168 60.208C24.6475 59.9093 24.1675 59.7013 23.6768 59.584C22.9728 59.392 22.3488 59.1627 21.8048 58.896C21.2395 58.6187 20.8181 58.2773 20.5408 57.872C20.2635 57.4667 20.1248 57.04 20.1248 56.592C20.1248 56.176 20.2688 55.7547 20.5568 55.328C20.8448 54.8907 21.1861 54.576 21.5808 54.384C21.7941 54.2773 22.1568 54.1653 22.6688 54.048C23.1915 53.92 23.5701 53.856 23.8048 53.856C24.1141 53.856 24.4555 53.8933 24.8288 53.968C25.2021 54.0427 25.5061 54.1493 25.7408 54.288C26.2101 54.5547 26.5568 54.7947 26.7808 55.008C27.0048 55.2213 27.1168 55.488 27.1168 55.808C27.1168 56 27.0421 56.1707 26.8928 56.32C26.7541 56.4693 26.5088 56.544 26.1568 56.544C26.0715 56.544 25.9861 56.5067 25.9008 56.432C25.8155 56.3573 25.7088 56.2453 25.5808 56.096C25.4101 55.872 25.2448 55.7227 25.0848 55.648C24.9248 55.5947 24.6901 55.536 24.3808 55.472C24.0821 55.408 23.8155 55.376 23.5808 55.376C23.3248 55.376 23.0581 55.4293 22.7808 55.536C22.5035 55.6427 22.2688 55.7973 22.0768 56C21.8955 56.192 21.8048 56.416 21.8048 56.672C21.8048 56.8853 21.9008 57.072 22.0928 57.232C22.2955 57.3813 22.5355 57.504 22.8128 57.6C23.1328 57.728 23.4795 57.84 23.8528 57.936C24.3435 58.0853 24.7435 58.224 25.0528 58.352C25.3728 58.4693 25.6821 58.6187 25.9808 58.8C26.5035 59.1093 26.8821 59.4293 27.1168 59.76C27.3515 60.08 27.4688 60.528 27.4688 61.104ZM28.9652 58.464C28.8159 58.4427 28.6932 58.3787 28.5972 58.272C28.5119 58.1653 28.4692 58.0373 28.4692 57.888C28.4692 57.8133 28.4852 57.7333 28.5172 57.648C28.5599 57.5627 28.6185 57.488 28.6932 57.424C28.8319 57.2853 29.2052 57.216 29.8132 57.216C29.8985 56.8 29.9412 56.3787 29.9412 55.952C29.9412 55.792 29.9359 55.6533 29.9252 55.536C29.9145 55.4187 29.9092 55.328 29.9092 55.264C29.9092 55.0293 29.9945 54.8533 30.1652 54.736C30.3465 54.6187 30.5492 54.56 30.7732 54.56C31.0505 54.56 31.2372 54.6293 31.3332 54.768C31.4399 54.9067 31.4932 55.1627 31.4932 55.536C31.4932 56.0907 31.4452 56.6347 31.3492 57.168C31.5199 57.168 31.7545 57.1573 32.0532 57.136C32.4585 57.1147 32.7519 57.104 32.9332 57.104C33.1145 57.104 33.2692 57.152 33.3972 57.248C33.5359 57.3333 33.6052 57.456 33.6052 57.616C33.6052 58.032 33.4185 58.2773 33.0452 58.352C32.6505 58.448 32.0372 58.5067 31.2052 58.528C31.1732 58.944 31.1572 59.3973 31.1572 59.888C31.1572 60.656 31.2052 61.2853 31.3012 61.776C31.3652 62.1173 31.4719 62.368 31.6212 62.528C31.7812 62.6773 32.0159 62.752 32.3252 62.752C32.5065 62.752 32.6932 62.704 32.8852 62.608C33.0132 62.5333 33.1305 62.496 33.2372 62.496C33.3865 62.496 33.4932 62.544 33.5572 62.64C33.6319 62.736 33.6692 62.864 33.6692 63.024C33.6692 63.3227 33.5092 63.5733 33.1892 63.776C32.8692 63.968 32.4585 64.064 31.9572 64.064C31.6479 64.064 31.3332 63.9893 31.0132 63.84C30.7039 63.6907 30.4425 63.504 30.2292 63.28C30.1972 63.248 30.1385 63.1253 30.0532 62.912C29.9679 62.6987 29.8932 62.4693 29.8292 62.224C29.7225 61.7227 29.6692 61.0187 29.6692 60.112C29.6692 59.7173 29.6905 59.1893 29.7332 58.528L28.9652 58.464ZM42.2608 63.232C42.2608 63.4667 42.1328 63.664 41.8768 63.824C41.6315 63.984 41.4021 64.064 41.1888 64.064C40.7835 64.064 40.4581 64.016 40.2128 63.92C39.9781 63.8133 39.7595 63.6213 39.5568 63.344C39.2795 63.5893 38.9008 63.776 38.4208 63.904C37.9408 64.0213 37.4981 64.08 37.0928 64.08C36.4315 64.08 35.8875 63.904 35.4608 63.552C35.0341 63.1893 34.8208 62.6613 34.8208 61.968C34.8208 61.6693 34.9008 61.3973 35.0608 61.152C35.2208 60.896 35.4395 60.672 35.7168 60.48C36.0261 60.2773 36.3781 60.1227 36.7728 60.016C37.1675 59.8987 37.5781 59.84 38.0048 59.84C38.2288 59.84 38.4955 59.8827 38.8048 59.968C39.1141 60.0533 39.3541 60.144 39.5248 60.24V59.984C39.5248 59.408 39.3861 59.0133 39.1088 58.8C38.8315 58.576 38.3835 58.464 37.7648 58.464C37.5835 58.464 37.4021 58.5013 37.2208 58.576C37.0501 58.6507 36.8528 58.752 36.6288 58.88C36.3301 59.04 36.0475 59.12 35.7808 59.12C35.6848 59.12 35.5941 59.056 35.5088 58.928C35.4235 58.7893 35.3808 58.6667 35.3808 58.56C35.3808 58.2507 35.5248 57.984 35.8128 57.76C36.1115 57.536 36.4635 57.3707 36.8688 57.264C37.2741 57.1467 37.6368 57.088 37.9568 57.088C38.2768 57.088 38.6448 57.152 39.0608 57.28C39.4768 57.3973 39.8181 57.5627 40.0848 57.776C40.4048 58.0533 40.6501 58.3787 40.8208 58.752C41.0021 59.1147 41.0928 59.5147 41.0928 59.952C41.0928 60.0907 41.0821 60.2987 41.0608 60.576C41.0395 60.8747 41.0288 61.1307 41.0288 61.344C41.0288 61.44 41.0181 61.584 40.9968 61.776C40.9755 62.0107 40.9648 62.1973 40.9648 62.336C40.9648 62.464 41.0128 62.576 41.1088 62.672C41.2048 62.7573 41.3168 62.8 41.4448 62.8L41.8928 62.784C42.0101 62.784 42.1008 62.8267 42.1648 62.912C42.2288 62.9973 42.2608 63.104 42.2608 63.232ZM37.1088 62.816C37.5675 62.816 37.9515 62.768 38.2608 62.672C38.5701 62.576 38.9435 62.4 39.3808 62.144C39.4235 61.9627 39.4501 61.7227 39.4608 61.424C38.8741 61.1467 38.3888 61.008 38.0048 61.008C37.5675 61.008 37.1781 61.088 36.8368 61.248C36.4955 61.408 36.3248 61.6907 36.3248 62.096C36.3248 62.2987 36.4101 62.4693 36.5808 62.608C36.7515 62.7467 36.9275 62.816 37.1088 62.816ZM45.0686 67.264C44.4819 67.264 44.0552 67.1573 43.7886 66.944C43.5326 66.7413 43.4046 66.5173 43.4046 66.272C43.4046 65.8987 43.5806 65.712 43.9326 65.712C44.0392 65.712 44.1779 65.744 44.3486 65.808C44.5192 65.8827 44.6792 65.92 44.8286 65.92C45.0632 65.92 45.2552 65.7653 45.4046 65.456C45.5539 65.1467 45.7032 64.6453 45.8526 63.952C45.5219 63.568 45.1166 62.96 44.6366 62.128C44.1672 61.296 43.7619 60.48 43.4206 59.68C43.0792 58.8693 42.9086 58.2933 42.9086 57.952C42.9086 57.6853 42.9992 57.488 43.1806 57.36C43.3726 57.232 43.5912 57.168 43.8366 57.168C44.0286 57.168 44.1779 57.2053 44.2846 57.28C44.3912 57.344 44.4659 57.4667 44.5086 57.648C44.7646 58.5547 45.0366 59.3493 45.3246 60.032C45.6232 60.7147 46.0019 61.456 46.4606 62.256C46.6419 61.84 46.8819 61.1307 47.1806 60.128C47.5112 59.008 47.7886 58.2133 48.0126 57.744C48.1086 57.552 48.2259 57.3973 48.3646 57.28C48.5139 57.1627 48.6792 57.104 48.8606 57.104C49.0419 57.104 49.2339 57.1733 49.4366 57.312C49.6499 57.44 49.7566 57.5947 49.7566 57.776C49.7566 57.8827 49.7192 58.0107 49.6446 58.16C49.2286 59.12 48.8606 60.0267 48.5406 60.88C48.2312 61.7227 47.9326 62.6507 47.6446 63.664C47.4739 64.2293 47.2926 64.768 47.1006 65.28C46.9192 65.792 46.7912 66.1067 46.7166 66.224C46.5032 66.5227 46.2632 66.768 45.9966 66.96C45.7299 67.1627 45.4206 67.264 45.0686 67.264ZM59.1223 53.824C59.837 53.824 60.4876 53.9147 61.0743 54.096C61.661 54.2667 62.141 54.5227 62.5143 54.864C63.1863 55.472 63.6556 56.1387 63.9223 56.864C64.1996 57.5787 64.3383 58.496 64.3383 59.616C64.3383 59.8507 64.3063 60.064 64.2423 60.256C64.189 60.448 64.0983 60.6933 63.9703 60.992C63.8103 61.3227 63.7143 61.584 63.6823 61.776C63.469 62.1493 63.117 62.5067 62.6263 62.848C62.1463 63.1893 61.6236 63.4667 61.0583 63.68C60.493 63.8933 59.997 64 59.5703 64C57.5116 64 56.045 63.296 55.1703 61.888C54.925 61.4933 54.733 61.0827 54.5943 60.656C54.4663 60.2293 54.4023 59.8133 54.4023 59.408C54.4023 58.32 54.5943 57.376 54.9783 56.576C55.373 55.7653 55.917 55.136 56.6103 54.688C57.0263 54.4427 57.4583 54.24 57.9063 54.08C58.365 53.9093 58.7703 53.824 59.1223 53.824ZM56.0663 59.456C56.0663 60.032 56.1943 60.5067 56.4503 60.88C56.717 61.2533 57.1223 61.6587 57.6663 62.096C58.1143 62.2667 58.4183 62.3787 58.5783 62.432C58.7383 62.4747 58.9196 62.496 59.1223 62.496C60.1996 62.496 61.0583 62.2027 61.6983 61.616C62.3383 61.0293 62.6583 60.224 62.6583 59.2C62.6583 58.3893 62.5676 57.7493 62.3863 57.28C62.205 56.8107 61.8796 56.3893 61.4103 56.016C61.165 55.8133 60.8503 55.664 60.4663 55.568C60.093 55.472 59.6876 55.424 59.2503 55.424C58.589 55.424 58.0183 55.6213 57.5383 56.016C57.0583 56.4 56.6903 56.9013 56.4343 57.52C56.189 58.1387 56.0663 58.784 56.0663 59.456ZM68.2361 63.36C68.2147 63.5413 68.1401 63.7013 68.0121 63.84C67.8841 63.9787 67.7187 64.048 67.5161 64.048C67.1961 64.048 66.9614 63.9893 66.8121 63.872C66.6627 63.744 66.5881 63.5147 66.5881 63.184C66.5881 62.736 66.6147 62.2453 66.6681 61.712C66.7107 61.0933 66.7321 60.6187 66.7321 60.288C66.7321 60.1173 66.7214 59.904 66.7001 59.648C66.6787 59.4133 66.6681 59.2373 66.6681 59.12C66.6361 58.9387 66.5614 58.7947 66.4441 58.688C66.3374 58.5813 66.1667 58.4907 65.9321 58.416C65.8361 58.3733 65.7561 58.304 65.6921 58.208C65.6281 58.1013 65.5961 58.0053 65.5961 57.92C65.5961 57.6747 65.6921 57.488 65.8841 57.36C66.0761 57.232 66.3107 57.168 66.5881 57.168C66.8974 57.168 67.1641 57.2747 67.3881 57.488C67.6121 57.7013 67.7827 57.968 67.9001 58.288C68.1454 57.936 68.4441 57.6533 68.7961 57.44C69.1587 57.2267 69.5107 57.12 69.8521 57.12C70.2894 57.12 70.6574 57.1947 70.9561 57.344C71.2654 57.4827 71.4201 57.728 71.4201 58.08C71.4201 58.2827 71.3294 58.496 71.1481 58.72C70.9774 58.9333 70.8014 59.04 70.6201 59.04C70.4814 59.04 70.3161 58.976 70.1241 58.848C70.0494 58.7947 69.9641 58.752 69.8681 58.72C69.7827 58.6773 69.6921 58.656 69.5961 58.656C69.4254 58.656 69.2654 58.6827 69.1161 58.736C68.9667 58.7893 68.8654 58.8533 68.8121 58.928C68.6414 59.1947 68.5134 59.4347 68.4281 59.648C68.3534 59.8613 68.3161 60.0907 68.3161 60.336C68.3161 60.5173 68.3107 60.6613 68.3001 60.768L68.2841 61.68L68.3001 62.288C68.3001 62.736 68.2787 63.0933 68.2361 63.36ZM78.1474 63.968C78.4354 64.1707 78.6274 64.3947 78.7234 64.64C78.8301 64.8853 78.8834 65.2267 78.8834 65.664C78.8834 65.8773 78.8194 66.0907 78.6914 66.304C78.5741 66.5173 78.4514 66.672 78.3234 66.768C77.3101 67.3227 76.2968 67.6 75.2834 67.6C74.7821 67.6 74.3501 67.536 73.9874 67.408C73.6248 67.28 73.2834 67.1093 72.9634 66.896C72.7501 66.736 72.5741 66.512 72.4354 66.224C72.3074 65.9467 72.2434 65.6693 72.2434 65.392C72.2434 65.008 72.3608 64.672 72.5954 64.384C72.8408 64.096 73.1661 63.888 73.5714 63.76C73.4968 63.6 73.4594 63.4133 73.4594 63.2C73.4594 62.9973 73.6088 62.6933 73.9074 62.288C73.3954 62.1173 72.9901 61.8133 72.6914 61.376C72.4034 60.9387 72.2594 60.4267 72.2594 59.84C72.2594 59.4773 72.3448 59.1573 72.5154 58.88C72.6861 58.592 72.9421 58.2613 73.2834 57.888C73.5181 57.632 73.8168 57.4453 74.1794 57.328C74.5421 57.2107 74.9954 57.152 75.5394 57.152C75.9234 57.152 76.3981 57.2373 76.9634 57.408C77.6354 56.9387 78.2274 56.704 78.7394 56.704C78.8674 56.704 79.0114 56.736 79.1714 56.8C79.3421 56.864 79.4701 56.928 79.5554 56.992C79.6194 57.1093 79.6514 57.3067 79.6514 57.584C79.6514 57.6907 79.6034 57.7973 79.5074 57.904C79.4221 58 79.3101 58.048 79.1714 58.048L78.7874 58.032C78.5954 58.0107 78.4461 58 78.3394 58C78.2221 58 78.0461 58.0107 77.8114 58.032C78.0354 58.2987 78.2061 58.5813 78.3234 58.88C78.4514 59.1787 78.5154 59.568 78.5154 60.048C78.5154 60.4107 78.3821 60.7893 78.1154 61.184C77.8488 61.5787 77.5341 61.888 77.1714 62.112C76.6168 62.4107 75.9714 62.5653 75.2354 62.576C75.1501 62.6613 75.0754 62.7413 75.0114 62.816C74.9581 62.88 74.9314 62.9333 74.9314 62.976C74.9314 63.0933 75.0328 63.184 75.2354 63.248C75.4381 63.312 75.7474 63.36 76.1634 63.392C76.4834 63.4133 76.8354 63.4827 77.2194 63.6C77.6141 63.7067 77.9234 63.8293 78.1474 63.968ZM75.3314 61.264C75.8221 61.264 76.2168 61.1307 76.5154 60.864C76.8141 60.5973 76.9634 60.2187 76.9634 59.728C76.9634 59.3547 76.8301 59.0507 76.5634 58.816C76.2968 58.5813 75.9554 58.464 75.5394 58.464C75.2728 58.464 74.9848 58.512 74.6754 58.608C74.3768 58.6933 74.1634 58.832 74.0354 59.024C73.9714 59.1093 73.9074 59.2747 73.8434 59.52C73.7794 59.7547 73.7474 59.936 73.7474 60.064C73.7474 60.2453 73.8221 60.432 73.9714 60.624C74.1314 60.8053 74.3341 60.96 74.5794 61.088C74.8354 61.2053 75.0861 61.264 75.3314 61.264ZM76.3394 64.736C75.7528 64.6827 75.3368 64.6293 75.0914 64.576C74.8568 64.5333 74.6648 64.48 74.5154 64.416C73.9714 64.704 73.6994 65.0187 73.6994 65.36C73.6994 65.68 73.8648 65.92 74.1954 66.08C74.5261 66.2507 74.9048 66.336 75.3314 66.336C75.5234 66.336 75.7848 66.3147 76.1154 66.272C76.4461 66.2293 76.7234 66.1547 76.9474 66.048C77.0968 65.9733 77.2088 65.8987 77.2834 65.824C77.3581 65.76 77.3954 65.6373 77.3954 65.456C77.3954 65.232 77.2781 65.0613 77.0434 64.944C76.8088 64.8267 76.5741 64.7573 76.3394 64.736ZM86.6546 64.064C86.2919 64.064 86.0146 64.0107 85.8226 63.904C85.6306 63.7867 85.4226 63.5733 85.1986 63.264C84.9212 63.5093 84.5052 63.7067 83.9506 63.856C83.4066 64.0053 82.9372 64.08 82.5426 64.08C81.8919 64.08 81.3639 63.904 80.9586 63.552C80.5639 63.1893 80.3666 62.6613 80.3666 61.968C80.3666 61.6693 80.4466 61.3973 80.6066 61.152C80.7772 60.896 80.9959 60.672 81.2626 60.48C81.5612 60.2773 81.9132 60.1173 82.3186 60C82.7346 59.8827 83.1132 59.824 83.4546 59.824C84.0306 59.824 84.5426 59.8773 84.9906 59.984V59.968C84.9906 59.392 84.8466 58.9973 84.5586 58.784C84.2812 58.56 83.8332 58.448 83.2146 58.448C82.8199 58.448 82.4786 58.624 82.1906 58.976C82.0839 59.1147 81.8599 59.184 81.5186 59.184C81.3479 59.184 81.2199 59.1147 81.1346 58.976C81.0599 58.8267 81.0226 58.6773 81.0226 58.528C81.0226 58.2187 81.1506 57.952 81.4066 57.728C81.6732 57.504 81.9932 57.3387 82.3666 57.232C82.7399 57.1147 83.0866 57.056 83.4066 57.056C83.7159 57.056 84.0839 57.12 84.5106 57.248C84.9372 57.376 85.2839 57.5467 85.5506 57.76C85.8706 58.0373 86.1159 58.3627 86.2866 58.736C86.4679 59.0987 86.5586 59.4987 86.5586 59.936C86.5586 60.0747 86.5479 60.2827 86.5266 60.56C86.5052 60.88 86.4946 61.1413 86.4946 61.344C86.4946 61.44 86.4839 61.5627 86.4626 61.712C86.4412 61.904 86.4306 62.064 86.4306 62.192C86.4306 62.3307 86.4732 62.464 86.5586 62.592C86.6439 62.72 86.7612 62.8267 86.9106 62.912C87.0492 62.9867 87.1399 63.0667 87.1826 63.152C87.2252 63.2373 87.2466 63.3333 87.2466 63.44C87.2466 63.5467 87.1772 63.68 87.0386 63.84C86.9106 63.9893 86.7826 64.064 86.6546 64.064ZM83.4546 61.008C83.0386 61.008 82.6706 61.088 82.3506 61.248C82.0306 61.408 81.8706 61.6907 81.8706 62.096C81.8706 62.2987 81.9399 62.4693 82.0786 62.608C82.2279 62.7467 82.3879 62.816 82.5586 62.816C83.0172 62.816 83.4012 62.768 83.7106 62.672C84.0199 62.576 84.3932 62.4 84.8306 62.144C84.8839 61.9733 84.9159 61.7333 84.9266 61.424C84.9266 61.3067 84.9319 61.216 84.9426 61.152C84.3666 61.056 83.8706 61.008 83.4546 61.008ZM88.3216 58.368C88.2362 58.304 88.1669 58.24 88.1136 58.176C88.0602 58.1013 88.0336 57.9733 88.0336 57.792C88.0336 57.5893 88.1029 57.4347 88.2416 57.328C88.3909 57.2107 88.5616 57.152 88.7536 57.152C89.1269 57.152 89.4469 57.248 89.7136 57.44C89.9909 57.632 90.1936 57.8987 90.3216 58.24C90.5562 57.8027 90.8549 57.504 91.2176 57.344C91.5802 57.1733 92.0816 57.088 92.7216 57.088C92.9776 57.088 93.2389 57.168 93.5056 57.328C93.7829 57.4773 94.0336 57.664 94.2576 57.888C94.4389 58.1227 94.5936 58.416 94.7216 58.768C94.8496 59.1093 94.9136 59.4187 94.9136 59.696C94.9136 59.856 94.9029 60.1173 94.8816 60.48C94.8602 60.864 94.8496 61.168 94.8496 61.392C94.8496 62.1387 94.9936 62.5973 95.2816 62.768C95.3242 62.7893 95.4042 62.816 95.5216 62.848C95.6389 62.88 95.7242 62.912 95.7776 62.944C95.8416 62.976 95.8736 63.024 95.8736 63.088C95.8842 63.344 95.7882 63.5573 95.5856 63.728C95.3936 63.888 95.1589 63.968 94.8816 63.968C94.4656 63.968 94.1402 63.856 93.9056 63.632C93.6709 63.408 93.5056 63.0667 93.4096 62.608C93.3562 62.4373 93.3296 62.1867 93.3296 61.856C93.3296 61.6747 93.3402 61.3813 93.3616 60.976C93.3936 60.656 93.4096 60.3147 93.4096 59.952C93.4096 59.5787 93.3029 59.2533 93.0896 58.976C92.8762 58.688 92.5829 58.544 92.2096 58.544C91.9856 58.544 91.7509 58.6133 91.5056 58.752C91.2602 58.88 91.0896 59.04 90.9936 59.232C90.8336 59.5627 90.7269 59.8987 90.6736 60.24C90.5456 60.9013 90.4816 61.536 90.4816 62.144C90.4816 62.2933 90.4922 62.5813 90.5136 63.008C90.5136 63.04 90.5136 63.12 90.5136 63.248C90.5136 63.3653 90.4976 63.4773 90.4656 63.584C90.4442 63.6907 90.4016 63.7867 90.3376 63.872C90.2949 63.9147 90.2149 63.9573 90.0976 64C89.9802 64.0427 89.8789 64.064 89.7936 64.064C89.6442 64.064 89.4576 64 89.2336 63.872C89.0096 63.744 88.8762 63.6 88.8336 63.44L88.8176 63.216C88.8176 63.1307 88.8282 63.0027 88.8496 62.832C88.9776 62.0853 89.0416 61.4347 89.0416 60.88C89.0416 60.6347 89.0362 60.448 89.0256 60.32L89.0096 59.584C89.0096 59.36 88.9456 59.1467 88.8176 58.944C88.6896 58.7307 88.5242 58.5387 88.3216 58.368ZM97.7648 53.728C98.1381 53.76 98.4581 53.8613 98.7248 54.032C99.0021 54.192 99.1408 54.4373 99.1408 54.768C99.1408 55.0133 99.0288 55.2107 98.8048 55.36C98.5808 55.4987 98.3035 55.568 97.9728 55.568C97.6635 55.568 97.4501 55.488 97.3328 55.328C97.2155 55.168 97.1568 55.0027 97.1568 54.832C97.1568 54.5227 97.1941 54.2613 97.2688 54.048C97.3435 53.824 97.5088 53.7173 97.7648 53.728ZM97.4448 60.336V59.872C97.4448 59.3387 97.4181 58.8533 97.3648 58.416C97.3221 57.968 97.2955 57.6907 97.2848 57.584C97.2955 57.4667 97.3755 57.3547 97.5248 57.248C97.6741 57.1413 97.8075 57.088 97.9248 57.088C98.1275 57.088 98.3301 57.1307 98.5328 57.216C98.7461 57.2907 98.8795 57.3867 98.9328 57.504C98.9861 57.8987 99.0128 58.2027 99.0128 58.416C99.0128 58.8853 99.0341 59.6533 99.0768 60.72L99.0928 61.344L99.1248 61.952C99.1355 62.1227 99.1461 62.3253 99.1568 62.56C99.1675 62.7947 99.1728 63.0613 99.1728 63.36C99.1728 63.5627 99.0715 63.7333 98.8688 63.872C98.6768 64.0107 98.4741 64.08 98.2608 64.08C97.9515 64.08 97.7328 64.0107 97.6048 63.872C97.4875 63.7333 97.4288 63.5147 97.4288 63.216L97.4448 60.336ZM106.579 58.528C106.355 58.912 106.051 59.3067 105.667 59.712C105.283 60.1173 104.793 60.5973 104.195 61.152C103.63 61.6853 103.315 61.9893 103.251 62.064L102.707 62.56C102.921 62.6027 103.321 62.624 103.907 62.624C104.142 62.624 104.483 62.5813 104.931 62.496C105.358 62.4107 105.673 62.368 105.875 62.368C106.046 62.368 106.238 62.3947 106.451 62.448C106.675 62.5013 106.883 62.5813 107.075 62.688C107.171 62.7307 107.251 62.816 107.315 62.944C107.379 63.0613 107.411 63.1733 107.411 63.28C107.411 63.4187 107.363 63.5733 107.267 63.744C107.171 63.9147 107.059 64 106.931 64C106.814 64 106.659 63.9787 106.467 63.936C106.179 63.8827 105.977 63.856 105.859 63.856C105.486 63.856 104.99 63.8827 104.371 63.936C103.518 64 102.889 64.032 102.483 64.032C101.971 64.032 101.566 63.968 101.267 63.84C100.979 63.712 100.835 63.472 100.835 63.12C100.835 62.8533 100.969 62.5493 101.235 62.208C101.502 61.856 101.827 61.488 102.211 61.104L102.435 60.864C102.606 60.6933 102.894 60.4373 103.299 60.096C103.705 59.744 104.014 59.4667 104.227 59.264C104.441 59.0507 104.617 58.8267 104.755 58.592L102.195 58.608C101.779 58.608 101.47 58.56 101.267 58.464C101.075 58.368 100.979 58.1867 100.979 57.92C100.979 57.7707 101.033 57.632 101.139 57.504C101.246 57.3653 101.385 57.28 101.555 57.248C101.939 57.1947 102.723 57.168 103.907 57.168C105.091 57.168 105.907 57.2267 106.355 57.344C106.473 57.3867 106.563 57.4667 106.627 57.584C106.702 57.6907 106.739 57.8027 106.739 57.92C106.739 58.112 106.686 58.3147 106.579 58.528ZM108.337 60.608C108.337 60.2027 108.412 59.7973 108.561 59.392C108.711 58.976 108.908 58.5973 109.153 58.256C109.399 57.9147 109.788 57.6373 110.321 57.424C110.855 57.2 111.329 57.088 111.745 57.088C112.172 57.088 112.604 57.1467 113.041 57.264C113.489 57.3813 113.799 57.5627 113.969 57.808C114.364 58.3627 114.561 58.9067 114.561 59.44C114.561 59.728 114.497 59.9733 114.369 60.176C114.252 60.3787 114.081 60.5973 113.857 60.832C113.676 61.024 113.388 61.152 112.993 61.216C112.609 61.28 112.225 61.312 111.841 61.312C111.596 61.312 111.297 61.2907 110.945 61.248C110.593 61.1947 110.252 61.1307 109.921 61.056C109.943 61.2693 109.996 61.4773 110.081 61.68C110.167 61.8827 110.268 62.0373 110.385 62.144C110.599 62.3467 110.817 62.4747 111.041 62.528C111.276 62.5813 111.575 62.608 111.937 62.608C112.321 62.608 112.679 62.544 113.009 62.416C113.276 62.32 113.495 62.272 113.665 62.272C113.868 62.272 114.023 62.336 114.129 62.464C114.236 62.5813 114.289 62.736 114.289 62.928C114.289 63.1947 114.135 63.4133 113.825 63.584C113.516 63.7547 113.159 63.8827 112.753 63.968C112.359 64.0427 112.039 64.08 111.793 64.08C111.292 64.08 110.807 63.9893 110.337 63.808C109.868 63.6267 109.479 63.3707 109.169 63.04C108.913 62.7413 108.711 62.384 108.561 61.968C108.412 61.5413 108.337 61.088 108.337 60.608ZM111.825 58.448C111.591 58.448 111.356 58.496 111.121 58.592C110.887 58.6773 110.695 58.8 110.545 58.96C110.353 59.1627 110.22 59.328 110.145 59.456C110.081 59.5733 110.039 59.7387 110.017 59.952C110.284 60.0373 110.839 60.08 111.681 60.08C112.14 60.08 112.492 60.0107 112.737 59.872C112.993 59.7333 113.121 59.552 113.121 59.328C113.121 59.104 112.983 58.9013 112.705 58.72C112.428 58.5387 112.135 58.448 111.825 58.448ZM122.474 53.984C122.474 54.0907 122.448 54.384 122.394 54.864C122.277 56.0373 122.218 57.2267 122.218 58.432C122.218 59.488 122.234 60.2933 122.266 60.848C122.298 61.4027 122.378 61.8293 122.506 62.128C122.634 62.416 122.832 62.56 123.098 62.56C123.61 62.56 123.866 62.7307 123.866 63.072C123.866 63.296 123.754 63.488 123.53 63.648C123.306 63.7973 123.061 63.872 122.794 63.872C122.474 63.872 122.176 63.7973 121.898 63.648C121.621 63.4987 121.402 63.2693 121.242 62.96C121.018 63.2907 120.693 63.5573 120.266 63.76C119.85 63.952 119.445 64.048 119.05 64.048C118.442 64.048 117.904 63.92 117.434 63.664C116.965 63.408 116.602 63.0613 116.346 62.624C116.09 62.176 115.962 61.6853 115.962 61.152C115.962 60.64 116.021 60.1493 116.138 59.68C116.266 59.2 116.437 58.8053 116.65 58.496C116.938 58.0907 117.322 57.7707 117.802 57.536C118.293 57.2907 118.773 57.168 119.242 57.168C119.53 57.168 119.802 57.2267 120.058 57.344C120.314 57.4507 120.538 57.584 120.73 57.744C120.73 57.0293 120.725 56.5813 120.714 56.4V56.064C120.714 55.072 120.778 54.3467 120.906 53.888C121.024 53.44 121.306 53.216 121.754 53.216C122 53.216 122.181 53.2693 122.298 53.376C122.416 53.4827 122.474 53.6853 122.474 53.984ZM117.546 61.12C117.546 61.6107 117.685 62.0053 117.962 62.304C118.25 62.6027 118.592 62.752 118.986 62.752C119.552 62.752 119.968 62.576 120.234 62.224C120.512 61.872 120.65 61.4187 120.65 60.864L120.634 59.28C120.218 58.8213 119.786 58.592 119.338 58.592C119.029 58.592 118.736 58.672 118.458 58.832C118.192 58.9813 117.978 59.2107 117.818 59.52C117.637 59.872 117.546 60.4053 117.546 61.12ZM125.398 64.048C125.281 64.048 125.196 64.0267 125.142 63.984C125.014 63.9093 124.902 63.8133 124.806 63.696C124.71 63.568 124.662 63.392 124.662 63.168C124.673 63.008 124.71 62.8693 124.774 62.752C124.838 62.624 124.929 62.5333 125.046 62.48C125.27 62.3627 125.558 62.304 125.91 62.304C126.166 62.304 126.374 62.4 126.534 62.592C126.694 62.7733 126.774 62.9973 126.774 63.264C126.774 63.584 126.678 63.952 126.486 64.368C126.305 64.7947 126.124 65.1253 125.942 65.36C125.804 65.52 125.644 65.6587 125.462 65.776C125.292 65.8933 125.142 65.952 125.014 65.952C124.758 65.952 124.593 65.9093 124.518 65.824C124.454 65.7493 124.422 65.6107 124.422 65.408C124.422 65.3227 124.534 65.1893 124.758 65.008C124.94 64.848 125.052 64.736 125.094 64.672C125.254 64.4587 125.372 64.2507 125.446 64.048H125.398ZM139.797 61.104C139.797 61.6053 139.68 62.0373 139.445 62.4C139.221 62.752 138.848 63.0773 138.325 63.376C137.973 63.5893 137.562 63.7493 137.093 63.856C136.624 63.9627 136.149 64.016 135.669 64.016C135.178 64.016 134.57 63.856 133.845 63.536C133.322 63.28 132.906 62.976 132.597 62.624C132.298 62.272 132.149 61.888 132.149 61.472C132.149 61.184 132.213 60.976 132.341 60.848C132.469 60.7093 132.677 60.64 132.965 60.64C133.114 60.64 133.269 60.704 133.429 60.832C133.589 60.9493 133.685 61.0667 133.717 61.184C133.866 61.6213 134.128 61.9573 134.501 62.192C134.874 62.416 135.338 62.528 135.893 62.528C136.533 62.528 137.066 62.4107 137.493 62.176C137.93 61.9413 138.149 61.6267 138.149 61.232C138.149 60.848 137.914 60.5067 137.445 60.208C136.976 59.9093 136.496 59.7013 136.005 59.584C135.301 59.392 134.677 59.1627 134.133 58.896C133.568 58.6187 133.146 58.2773 132.869 57.872C132.592 57.4667 132.453 57.04 132.453 56.592C132.453 56.176 132.597 55.7547 132.885 55.328C133.173 54.8907 133.514 54.576 133.909 54.384C134.122 54.2773 134.485 54.1653 134.997 54.048C135.52 53.92 135.898 53.856 136.133 53.856C136.442 53.856 136.784 53.8933 137.157 53.968C137.53 54.0427 137.834 54.1493 138.069 54.288C138.538 54.5547 138.885 54.7947 139.109 55.008C139.333 55.2213 139.445 55.488 139.445 55.808C139.445 56 139.37 56.1707 139.221 56.32C139.082 56.4693 138.837 56.544 138.485 56.544C138.4 56.544 138.314 56.5067 138.229 56.432C138.144 56.3573 138.037 56.2453 137.909 56.096C137.738 55.872 137.573 55.7227 137.413 55.648C137.253 55.5947 137.018 55.536 136.709 55.472C136.41 55.408 136.144 55.376 135.909 55.376C135.653 55.376 135.386 55.4293 135.109 55.536C134.832 55.6427 134.597 55.7973 134.405 56C134.224 56.192 134.133 56.416 134.133 56.672C134.133 56.8853 134.229 57.072 134.421 57.232C134.624 57.3813 134.864 57.504 135.141 57.6C135.461 57.728 135.808 57.84 136.181 57.936C136.672 58.0853 137.072 58.224 137.381 58.352C137.701 58.4693 138.01 58.6187 138.309 58.8C138.832 59.1093 139.21 59.4293 139.445 59.76C139.68 60.08 139.797 60.528 139.797 61.104ZM141.293 58.432C141.144 58.4107 141.021 58.352 140.925 58.256C140.84 58.1493 140.797 58.0213 140.797 57.872C140.797 57.68 140.872 57.52 141.021 57.392C141.053 57.36 141.107 57.3333 141.181 57.312C141.256 57.28 141.315 57.2533 141.357 57.232C141.592 57.1573 141.741 57.0987 141.805 57.056C142.051 56.9067 142.216 56.6613 142.301 56.32C142.387 55.9147 142.44 55.6373 142.461 55.488C142.483 55.2533 142.557 55.0773 142.685 54.96C142.824 54.832 142.995 54.768 143.197 54.768C143.464 54.768 143.651 54.8373 143.757 54.976C143.864 55.1147 143.917 55.3707 143.917 55.744C143.917 56.2347 143.8 56.6987 143.565 57.136C143.715 57.136 143.96 57.1253 144.301 57.104C144.813 57.0827 145.171 57.072 145.373 57.072C145.555 57.072 145.709 57.12 145.837 57.216C145.976 57.3013 146.045 57.4293 146.045 57.6C146.045 58.0053 145.859 58.2453 145.485 58.32C145.144 58.416 144.525 58.4747 143.629 58.496C143.555 59.5413 143.517 60.368 143.517 60.976C143.517 61.3493 143.533 61.616 143.565 61.776C143.629 62.1067 143.736 62.352 143.885 62.512C144.045 62.6613 144.28 62.736 144.589 62.736C144.739 62.736 144.963 62.6987 145.261 62.624C145.443 62.5707 145.587 62.544 145.693 62.544C145.832 62.544 145.939 62.592 146.013 62.688C146.088 62.784 146.125 62.912 146.125 63.072C146.125 63.36 145.939 63.6 145.565 63.792C145.192 63.9733 144.749 64.064 144.237 64.064C143.917 64.064 143.603 63.9893 143.293 63.84C142.984 63.68 142.723 63.488 142.509 63.264C142.467 63.2427 142.403 63.1253 142.317 62.912C142.243 62.6987 142.168 62.464 142.093 62.208C142.061 62.08 142.045 61.7707 142.045 61.28C142.045 60.8107 142.077 60 142.141 58.848L142.157 58.496C142.083 58.496 141.944 58.4907 141.741 58.48C141.539 58.4587 141.389 58.4427 141.293 58.432ZM153.358 64.064C152.995 64.064 152.718 64.0107 152.526 63.904C152.334 63.7867 152.126 63.5733 151.902 63.264C151.624 63.5093 151.208 63.7067 150.654 63.856C150.11 64.0053 149.64 64.08 149.246 64.08C148.595 64.08 148.067 63.904 147.662 63.552C147.267 63.1893 147.07 62.6613 147.07 61.968C147.07 61.6693 147.15 61.3973 147.31 61.152C147.48 60.896 147.699 60.672 147.966 60.48C148.264 60.2773 148.616 60.1173 149.022 60C149.438 59.8827 149.816 59.824 150.158 59.824C150.734 59.824 151.246 59.8773 151.694 59.984V59.968C151.694 59.392 151.55 58.9973 151.262 58.784C150.984 58.56 150.536 58.448 149.918 58.448C149.523 58.448 149.182 58.624 148.894 58.976C148.787 59.1147 148.563 59.184 148.222 59.184C148.051 59.184 147.923 59.1147 147.838 58.976C147.763 58.8267 147.726 58.6773 147.726 58.528C147.726 58.2187 147.854 57.952 148.11 57.728C148.376 57.504 148.696 57.3387 149.07 57.232C149.443 57.1147 149.79 57.056 150.11 57.056C150.419 57.056 150.787 57.12 151.214 57.248C151.64 57.376 151.987 57.5467 152.254 57.76C152.574 58.0373 152.819 58.3627 152.99 58.736C153.171 59.0987 153.262 59.4987 153.262 59.936C153.262 60.0747 153.251 60.2827 153.23 60.56C153.208 60.88 153.198 61.1413 153.198 61.344C153.198 61.44 153.187 61.5627 153.166 61.712C153.144 61.904 153.134 62.064 153.134 62.192C153.134 62.3307 153.176 62.464 153.262 62.592C153.347 62.72 153.464 62.8267 153.614 62.912C153.752 62.9867 153.843 63.0667 153.886 63.152C153.928 63.2373 153.95 63.3333 153.95 63.44C153.95 63.5467 153.88 63.68 153.742 63.84C153.614 63.9893 153.486 64.064 153.358 64.064ZM150.158 61.008C149.742 61.008 149.374 61.088 149.054 61.248C148.734 61.408 148.574 61.6907 148.574 62.096C148.574 62.2987 148.643 62.4693 148.782 62.608C148.931 62.7467 149.091 62.816 149.262 62.816C149.72 62.816 150.104 62.768 150.414 62.672C150.723 62.576 151.096 62.4 151.534 62.144C151.587 61.9733 151.619 61.7333 151.63 61.424C151.63 61.3067 151.635 61.216 151.646 61.152C151.07 61.056 150.574 61.008 150.158 61.008ZM156.961 67.264C156.566 67.264 156.23 67.1947 155.953 67.056C155.675 66.928 155.467 66.768 155.329 66.576C155.201 66.3947 155.137 66.2347 155.137 66.096C155.137 65.904 155.206 65.7333 155.345 65.584C155.483 65.4453 155.638 65.376 155.809 65.376C155.905 65.376 155.995 65.408 156.081 65.472C156.177 65.536 156.235 65.5733 156.257 65.584C156.31 65.6267 156.379 65.6907 156.465 65.776C156.55 65.872 156.635 65.92 156.721 65.92C156.966 65.92 157.163 65.7653 157.313 65.456C157.462 65.1467 157.606 64.6453 157.745 63.952C157.041 62.7893 156.374 61.6053 155.745 60.4C155.115 59.1947 154.801 58.3787 154.801 57.952C154.801 57.6853 154.897 57.488 155.089 57.36C155.281 57.232 155.499 57.168 155.745 57.168C155.926 57.168 156.07 57.2053 156.177 57.28C156.283 57.344 156.369 57.4667 156.433 57.648C156.731 58.5547 157.035 59.3653 157.345 60.08C157.654 60.784 158.011 61.4933 158.417 62.208C158.609 61.7813 158.838 61.0827 159.105 60.112C159.265 59.5467 159.403 59.088 159.521 58.736C159.638 58.3733 159.771 58.0427 159.921 57.744C160.017 57.552 160.134 57.3973 160.273 57.28C160.422 57.1627 160.582 57.104 160.753 57.104C160.945 57.104 161.142 57.1733 161.345 57.312C161.558 57.44 161.665 57.5947 161.665 57.776C161.665 57.8293 161.627 57.9573 161.553 58.16C161.137 59.088 160.769 59.984 160.449 60.848C160.129 61.7013 159.83 62.64 159.553 63.664C159.382 64.208 159.201 64.736 159.009 65.248C158.817 65.7707 158.683 66.096 158.609 66.224C158.385 66.5227 158.145 66.768 157.889 66.96C157.633 67.1627 157.323 67.264 156.961 67.264ZM173.909 63.76C173.77 63.5787 173.653 63.3813 173.557 63.168C173.461 62.944 173.36 62.6773 173.253 62.368C173.232 62.3147 173.168 62.1547 173.061 61.888C172.965 61.6213 172.853 61.392 172.725 61.2C172.053 61.296 171.504 61.344 171.077 61.344C170.842 61.344 170.581 61.3387 170.293 61.328C170.016 61.3067 169.808 61.296 169.669 61.296C169.136 61.2533 168.709 61.232 168.389 61.232C168.261 61.4027 168.149 61.584 168.053 61.776C167.968 61.968 167.856 62.256 167.717 62.64C167.525 63.1947 167.36 63.5893 167.221 63.824C167.125 63.984 166.938 64.064 166.661 64.064C166.426 64.064 166.208 64.016 166.005 63.92C165.813 63.8133 165.717 63.6693 165.717 63.488C165.802 63.0827 165.936 62.656 166.117 62.208C166.309 61.7493 166.581 61.1413 166.933 60.384L167.573 58.816C167.925 57.92 168.245 57.152 168.533 56.512C168.832 55.872 169.221 55.1147 169.701 54.24C169.765 54.112 169.872 54.0053 170.021 53.92C170.17 53.824 170.336 53.776 170.517 53.776C170.72 53.776 170.864 53.792 170.949 53.824C171.045 53.8453 171.12 53.888 171.173 53.952C171.226 54.0053 171.306 54.1227 171.413 54.304C171.776 54.8693 172.085 55.4507 172.341 56.048C172.608 56.6453 172.944 57.472 173.349 58.528L173.685 59.376C173.984 60.144 174.24 60.7893 174.453 61.312C174.677 61.824 174.922 62.2933 175.189 62.72C175.36 62.9973 175.445 63.1893 175.445 63.296C175.445 63.552 175.365 63.7493 175.205 63.888C175.056 64.016 174.858 64.08 174.613 64.08C174.304 64.08 174.069 63.9733 173.909 63.76ZM172.261 59.888C172.09 59.5253 171.845 58.896 171.525 58C171.194 57.04 170.864 56.2773 170.533 55.712C170.33 56.224 170.032 56.8853 169.637 57.696C169.37 58.1973 169.066 58.9227 168.725 59.872C169.408 59.9573 170.144 60 170.933 60C171.498 60 171.941 59.9627 172.261 59.888ZM178.479 53.856C178.479 54.1333 178.474 54.4587 178.463 54.832C178.453 55.1947 178.442 55.472 178.431 55.664C178.399 56.208 178.383 56.752 178.383 57.296C178.383 57.7013 178.399 58.1227 178.431 58.56C178.762 58.08 179.119 57.728 179.503 57.504C179.887 57.28 180.351 57.168 180.895 57.168C181.29 57.168 181.658 57.344 181.999 57.696C182.341 58.048 182.559 58.4587 182.655 58.928C182.687 59.344 182.703 59.8507 182.703 60.448C182.703 60.832 182.725 61.3333 182.767 61.952C182.789 62.1867 182.847 62.4053 182.943 62.608C183.05 62.8107 183.199 62.912 183.391 62.912C183.487 62.912 183.562 62.9067 183.615 62.896C183.679 62.8853 183.738 62.88 183.791 62.88C183.941 62.88 184.042 62.9173 184.095 62.992C184.159 63.0667 184.191 63.1733 184.191 63.312C184.191 63.568 184.063 63.76 183.807 63.888C183.551 64.016 183.317 64.08 183.103 64.08C182.335 64.08 181.807 63.76 181.519 63.12C181.359 62.7573 181.258 62.288 181.215 61.712C181.173 61.1253 181.151 60.4427 181.151 59.664C181.151 58.896 180.89 58.512 180.367 58.512C180.079 58.512 179.786 58.6667 179.487 58.976C179.199 59.2747 178.959 59.6747 178.767 60.176C178.575 60.6667 178.479 61.1787 178.479 61.712L178.495 63.376C178.495 63.6107 178.405 63.7867 178.223 63.904C178.042 64.0107 177.871 64.064 177.711 64.064C177.477 64.064 177.263 63.9947 177.071 63.856C176.879 63.7067 176.783 63.5413 176.783 63.36C176.858 62.56 176.895 61.2213 176.895 59.344C176.895 59.0027 176.869 57.7387 176.815 55.552L176.767 54.08C176.767 53.8453 176.874 53.6427 177.087 53.472C177.301 53.2907 177.541 53.2 177.807 53.2C178.042 53.2 178.213 53.2533 178.319 53.36C178.426 53.4667 178.479 53.632 178.479 53.856ZM185.025 60.384C185.025 60 185.094 59.6427 185.233 59.312C185.371 58.9707 185.574 58.6187 185.841 58.256C186.107 57.8933 186.475 57.6107 186.945 57.408C187.414 57.1947 187.926 57.088 188.481 57.088C188.907 57.088 189.318 57.1787 189.713 57.36C190.118 57.5307 190.481 57.744 190.801 58C190.843 58.0747 190.918 58.2133 191.025 58.416C191.131 58.608 191.206 58.784 191.249 58.944C191.302 59.104 191.329 59.2693 191.329 59.44C191.329 60.1547 191.067 60.6347 190.545 60.88C190.022 61.1147 189.361 61.232 188.561 61.232C187.761 61.232 187.11 61.1787 186.609 61.072C186.63 61.2747 186.683 61.4773 186.769 61.68C186.854 61.8827 186.955 62.0373 187.073 62.144C187.286 62.3467 187.494 62.48 187.697 62.544C187.91 62.5973 188.193 62.624 188.545 62.624C189.078 62.624 189.494 62.5227 189.793 62.32C190.07 62.1387 190.283 62.048 190.433 62.048C190.635 62.048 190.79 62.112 190.897 62.24C191.003 62.3573 191.057 62.512 191.057 62.704C191.057 63.1093 190.795 63.44 190.273 63.696C189.761 63.952 189.179 64.08 188.529 64.08C188.017 64.08 187.51 63.9893 187.009 63.808C186.507 63.6267 186.107 63.3707 185.809 63.04C185.606 62.6987 185.425 62.2827 185.265 61.792C185.105 61.3013 185.025 60.832 185.025 60.384ZM188.545 58.4C188.31 58.4 188.065 58.4427 187.809 58.528C187.563 58.6027 187.371 58.72 187.233 58.88C187.062 59.0613 186.934 59.2267 186.849 59.376C186.774 59.5253 186.726 59.712 186.705 59.936C186.822 59.936 186.934 59.9413 187.041 59.952C187.147 59.9627 187.249 59.9733 187.345 59.984C187.814 60.0267 188.166 60.048 188.401 60.048C188.87 60.048 189.227 59.9787 189.473 59.84C189.729 59.7013 189.857 59.5147 189.857 59.28C189.857 59.056 189.713 58.8533 189.425 58.672C189.147 58.4907 188.854 58.4 188.545 58.4ZM200.151 63.232C200.151 63.4667 200.023 63.664 199.767 63.824C199.522 63.984 199.293 64.064 199.079 64.064C198.674 64.064 198.349 64.016 198.103 63.92C197.869 63.8133 197.65 63.6213 197.447 63.344C197.17 63.5893 196.791 63.776 196.311 63.904C195.831 64.0213 195.389 64.08 194.983 64.08C194.322 64.08 193.778 63.904 193.351 63.552C192.925 63.1893 192.711 62.6613 192.711 61.968C192.711 61.6693 192.791 61.3973 192.951 61.152C193.111 60.896 193.33 60.672 193.607 60.48C193.917 60.2773 194.269 60.1227 194.663 60.016C195.058 59.8987 195.469 59.84 195.895 59.84C196.119 59.84 196.386 59.8827 196.695 59.968C197.005 60.0533 197.245 60.144 197.415 60.24V59.984C197.415 59.408 197.277 59.0133 196.999 58.8C196.722 58.576 196.274 58.464 195.655 58.464C195.474 58.464 195.293 58.5013 195.111 58.576C194.941 58.6507 194.743 58.752 194.519 58.88C194.221 59.04 193.938 59.12 193.671 59.12C193.575 59.12 193.485 59.056 193.399 58.928C193.314 58.7893 193.271 58.6667 193.271 58.56C193.271 58.2507 193.415 57.984 193.703 57.76C194.002 57.536 194.354 57.3707 194.759 57.264C195.165 57.1467 195.527 57.088 195.847 57.088C196.167 57.088 196.535 57.152 196.951 57.28C197.367 57.3973 197.709 57.5627 197.975 57.776C198.295 58.0533 198.541 58.3787 198.711 58.752C198.893 59.1147 198.983 59.5147 198.983 59.952C198.983 60.0907 198.973 60.2987 198.951 60.576C198.93 60.8747 198.919 61.1307 198.919 61.344C198.919 61.44 198.909 61.584 198.887 61.776C198.866 62.0107 198.855 62.1973 198.855 62.336C198.855 62.464 198.903 62.576 198.999 62.672C199.095 62.7573 199.207 62.8 199.335 62.8L199.783 62.784C199.901 62.784 199.991 62.8267 200.055 62.912C200.119 62.9973 200.151 63.104 200.151 63.232ZM194.999 62.816C195.458 62.816 195.842 62.768 196.151 62.672C196.461 62.576 196.834 62.4 197.271 62.144C197.314 61.9627 197.341 61.7227 197.351 61.424C196.765 61.1467 196.279 61.008 195.895 61.008C195.458 61.008 195.069 61.088 194.727 61.248C194.386 61.408 194.215 61.6907 194.215 62.096C194.215 62.2987 194.301 62.4693 194.471 62.608C194.642 62.7467 194.818 62.816 194.999 62.816ZM207.839 63.92C207.615 63.92 207.402 63.856 207.199 63.728C207.007 63.5893 206.837 63.4453 206.687 63.296C206.538 63.136 206.437 63.0293 206.383 62.976C206.159 63.296 205.834 63.5573 205.407 63.76C204.981 63.9627 204.57 64.064 204.175 64.064C203.567 64.064 203.029 63.936 202.559 63.68C202.09 63.424 201.727 63.0773 201.471 62.64C201.215 62.192 201.087 61.696 201.087 61.152C201.087 60.64 201.146 60.1493 201.263 59.68C201.391 59.2 201.562 58.8 201.775 58.48C202.063 58.0747 202.447 57.7547 202.927 57.52C203.418 57.2853 203.903 57.168 204.383 57.168C204.671 57.168 204.943 57.2213 205.199 57.328C205.455 57.4347 205.679 57.568 205.871 57.728C205.871 57.024 205.866 56.5813 205.855 56.4V56.048C205.855 55.0453 205.919 54.3147 206.047 53.856C206.165 53.408 206.453 53.184 206.911 53.184C207.157 53.184 207.338 53.2373 207.455 53.344C207.573 53.4507 207.631 53.6533 207.631 53.952C207.631 54.0587 207.605 54.352 207.551 54.832C207.434 56.0267 207.375 57.2213 207.375 58.416C207.375 59.4187 207.391 60.1653 207.423 60.656C207.466 61.136 207.546 61.52 207.663 61.808C207.791 62.096 207.989 62.352 208.255 62.576C208.415 62.704 208.527 62.8107 208.591 62.896C208.666 62.9813 208.703 63.0933 208.703 63.232C208.703 63.4027 208.618 63.5627 208.447 63.712C208.277 63.8507 208.074 63.92 207.839 63.92ZM204.127 62.768C204.693 62.768 205.109 62.592 205.375 62.24C205.653 61.8773 205.791 61.4187 205.791 60.864L205.775 59.968C205.765 59.7973 205.759 59.568 205.759 59.28C205.365 58.8107 204.938 58.576 204.479 58.576C204.17 58.576 203.877 58.656 203.599 58.816C203.333 58.976 203.114 59.2107 202.943 59.52C202.762 59.872 202.671 60.4053 202.671 61.12C202.671 61.6107 202.815 62.0107 203.103 62.32C203.391 62.6187 203.733 62.768 204.127 62.768ZM212.002 63.12C212.002 63.3867 211.895 63.6373 211.682 63.872C211.468 64.096 211.234 64.208 210.978 64.208C210.679 64.208 210.407 64.128 210.162 63.968C209.916 63.7973 209.794 63.584 209.794 63.328C209.794 62.9227 209.868 62.624 210.018 62.432C210.178 62.24 210.412 62.144 210.722 62.144C211.084 62.144 211.388 62.2347 211.634 62.416C211.879 62.5867 212.002 62.8213 212.002 63.12Z" fill="white"/>
</svg>
